<svg xmlns="http://www.w3.org/2000/svg" viewBox="0 0 384 512">
  <path fill="#6c757d" d="M97.3 507a332.3 332.3 0 010-470 17.2 17.2 0 0121.3-2.4l64.8 40.5a17.2 17.2 0 016.9 21l-32.4 81a17.2 17.2 0 01-17.7 10.7l-55.8-5.6a265.6 265.6 0 000 179.6l55.8-5.6a17.2 17.2 0 0117.7 10.7l32.4 81a17.2 17.2 0 01-6.9 21l-64.8 40.5a17.2 17.2 0 01-21.3-2.4zM247.1 95.5a64 64 0 010 65 12 12 0 01-18.7 2.6l-6-5.7a12 12 0 01-2.2-14.4 32 32 0 000-30 12 12 0 012.2-14.4l6-5.7a12 12 0 0118.7 2.6zM339 4.3a192.3 192.3 0 010 247.4 12 12 0 01-17.5 1l-5.8-5.6a12 12 0 01-1-16.4 160.2 160.2 0 000-205.4 12 12 0 011-16.4l5.8-5.5a12 12 0 0117.5.9zm-46 45a128.2 128.2 0 010 157.5 12 12 0 01-17.8 1.3l-5.8-5.6a12 12 0 01-1.3-16 96.1 96.1 0 000-117 12 12 0 011.3-16l5.8-5.6a12 12 0 0117.8 1.3z"/>
</svg>